<?xml version="1.0" encoding="utf-8"?>
<!-- Generator: Adobe Illustrator 27.5.0, SVG Export Plug-In . SVG Version: 6.00 Build 0)  -->
<svg version="1.1" xmlns="http://www.w3.org/2000/svg" xmlns:xlink="http://www.w3.org/1999/xlink" x="0px" y="0px"
	 viewBox="0 0 5320 3547" style="enable-background:new 0 0 5320 3547;" xml:space="preserve">
<g id="Baground">
	<rect style="fill:#FFFFFF;" width="5320" height="3547"/>
</g>
<g id="Object">
	<g>
		<g>
			<path style="fill:#8DD7F4;" d="M4963.053,2623.344c-15.914,120.409-50.291,237.022-98.575,348.331
				c-31.607,72.873-69.165,143.02-111.367,210.28c-10.404,4.558-32.854,14.229-59.802,24.999c2.403-3.561,4.777-7.136,7.136-10.726
				c127.853-194.029,219.468-417.321,233.491-651.09c12.5-208.492-35.096-418.156-127.354-604.946
				c-75.159-152.163-179.332-290.772-305.792-404.279c-29.82-26.787-60.886-52.167-93.095-75.994
				c-67.363-49.822-139.034-93.182-213.87-130.154c-62.131-30.714-126.431-57.032-192.241-78.968
				c-23.402-7.825-46.979-15.079-70.733-21.79c0.059,1.875,0.088,3.766,0.088,5.656c0,36.517-10.433,70.601-28.487,99.425
				c7.034,1.89,14.038,3.854,21.028,5.876c50.643,14.581,99.996,32.238,147.841,52.739
				c119.031,51.009,228.728,119.647,325.78,202.645c273.012,233.403,446.056,580.342,446.056,967.711
				c0,233.125-62.674,451.595-172.092,639.499c0.63,1.29,0.953,2.579,0.953,3.883c0,4.338-3.517,8.616-10.375,12.807
				c-0.234,0.161-0.483,0.308-0.732,0.455c-10.39,6.169-27.944,12.191-52.123,18.053
				c-191.464,46.423-798.681,82.368-1557.871,91.307c-119.75,1.407-243.279,2.139-369.564,2.139
				c-42.32,0-84.317-0.088-125.977-0.249c-268.645-1.055-522.842-5.452-752.156-12.529c-5.48-0.161-10.961-0.337-16.412-0.513
				c-90.383-2.843-176.811-6.125-258.651-9.774c-0.44-0.015-0.894-0.044-1.333-0.059c-4.704-0.205-9.408-0.425-14.082-0.63
				c-6.331-0.293-12.631-0.586-18.903-0.879h-0.015c-2.696-0.117-5.393-0.249-8.089-0.381c-0.249,0-0.513-0.015-0.762-0.029
				c-1.421-0.074-2.843-0.132-4.265-0.205h-0.014c-4.777-0.22-9.525-0.454-14.273-0.689c-1.333-0.059-2.667-0.117-4-0.191
				c-0.718-0.029-1.436-0.073-2.139-0.102c-3.004-0.147-5.993-0.293-8.968-0.44c-6.902-0.337-13.76-0.674-20.574-1.026
				c-6.36-0.323-12.69-0.645-18.991-0.968c-0.806-0.043-1.627-0.088-2.432-0.132c-21.805-1.143-43.214-2.301-64.212-3.488
				c-31.168-1.773-61.443-3.604-90.765-5.51c-6.887-0.439-13.73-0.879-20.515-1.333c-11.063-0.733-21.995-1.48-32.765-2.227
				c-6.975-0.484-13.892-0.982-20.735-1.466c-99.323-7.151-185.896-15.005-257.479-23.431
				c-95.893-11.298-164.897-23.636-201.648-36.649c0,0-30.597-13.393-46.95-20.969h-0.015c-3.268-8.851-6.477-17.746-9.598-26.655
				c-21.233-60.314-39.345-121.713-53.735-184.05c-3.238-14.038-6.301-28.135-9.158-42.29
				c-11.708-57.809-20.163-116.409-24.516-175.258c-3.224-43.55-4.206-87.248-2.594-130.871c0.366-10.082,0.879-20.164,1.539-30.231
				c3.077-47.698,9.32-95.249,19.064-142.023c2.125-10.213,4.455-20.368,6.976-30.45c5.363-21.57,11.591-42.862,18.449-63.963
				c0.689-2.139,1.392-4.279,2.096-6.404c1.7-5.129,3.429-10.243,5.202-15.342c5.231-15.152,10.771-30.201,16.529-45.207
				c0.777-2.037,1.568-4.074,2.359-6.111c4.088-10.565,8.264-21.101,12.544-31.593c11.635-28.545,24.002-56.812,37.352-84.581
				c0.674-1.451,1.378-2.887,2.081-4.323c13.144-27.183,27.241-53.881,42.466-79.95c11.987-20.515,24.662-40.62,38.143-60.241
				c0.102-0.161,0.22-0.308,0.322-0.469c57.486-83.555,128.029-156.53,206.572-220.449c7.693-6.257,18.317-7.591,25.908,0
				c6.491,6.491,7.678,19.65,0,25.907c-10.155,8.265-20.193,16.646-30.098,25.204c-60.226,52.02-114.313,109.477-160.384,173.279
				c-10.243,14.17-20.09,28.663-29.512,43.477c-1.509,2.374-3.004,4.733-4.484,7.122c-41.338,66.234-74.323,136.821-102.78,209.239
				c-4.221,10.741-8.338,21.512-12.383,32.326c-2.183,5.862-4.352,11.738-6.492,17.628c-1.114,3.048-2.198,6.111-3.282,9.158
				c-0.835,2.418-1.67,4.821-2.491,7.239c-1.348,3.956-2.682,7.927-3.971,11.898c-5.466,16.779-10.404,33.674-14.844,50.701
				c-17.657,67.671-27.417,137.129-30.172,207.158c-0.557,14.141-0.835,28.311-0.821,42.481
				c0.029,45.925,2.813,91.761,8.001,137.319c4.572,40.239,11.02,80.258,19.064,119.969c0.088,0.425,0.176,0.835,0.264,1.245
				c5.173,25.439,11.019,50.76,17.453,75.906c-2.989-25.468-5.217-51.17-6.638-77.078c-0.279-4.895-0.528-9.789-0.733-14.698
				c-0.791-18.185-1.187-36.458-1.187-54.848c0-7.019,0.059-14.038,0.176-21.028c1.011-61.487,6.492-121.874,16.134-180.87
				c0.864-5.378,1.773-10.741,2.74-16.09c0.161-1.026,0.352-2.066,0.542-3.092c14.024-78.236,35.359-153.937,63.289-226.354
				c0.44-1.143,0.879-2.286,1.319-3.415c4.22-10.887,8.602-21.687,13.144-32.414c0.542-1.319,1.099-2.623,1.671-3.942
				c0.923-2.213,1.875-4.44,2.843-6.639c7.371-17.042,15.123-33.894,23.226-50.526c28.912-59.347,62.41-116.042,100.025-169.63
				c23.973-34.172,49.632-67.085,76.844-98.604c76.756-88.948,165.908-166.92,264.762-231.205
				c36.165-23.534,73.635-45.236,112.276-64.974c-42.129-103.542-65.341-216.786-65.341-335.465
				c0-50.57,4.22-100.143,12.309-148.397c7.854-46.833,19.372-92.435,34.231-136.484c47.243-140.059,128.38-264.513,233.637-363.63
				c10.888-10.258,22.039-20.251,33.44-29.937c155.431-132.337,356.904-212.185,577.016-212.185
				c266.593,0,505.828,117.141,669.041,302.744c88.801-110.474,225.036-181.207,377.814-181.207
				c110.122,0,211.672,36.751,293.043,98.648c93.959,71.48,161.029,176.518,183.346,297.22c21.35-8.426,44.62-13.071,68.975-13.071
				c0.454,0,0.908,0.015,1.363,0.015c-28.032-146.976-89.534-260.248-183.244-337.429c-6.58-5.436-13.335-10.682-20.237-15.753
				c-94.252-69.15-201.707-91.864-275.253-98.736c-80.581-7.547-139.4,1.714-139.971,1.802c-11.987,1.934-23.27-6.198-25.219-18.171
				c-1.934-11.972,6.169-23.255,18.141-25.204c2.579-0.425,63.846-10.184,149.614-2.344
				c79.379,7.254,195.567,31.696,298.318,106.942c9.73,7.122,19.182,14.58,28.326,22.347
				c101.608,86.178,167.168,211.247,195.303,372.495c33.527,8.675,63.421,26.391,86.911,50.379
				c23.065,23.519,39.96,53.09,48.137,86.105c34.026,9.217,67.758,19.563,101.11,31.022
				c61.589,21.145,121.889,46.086,180.357,74.792c9.349,4.586,18.668,9.276,27.915,14.067
				c90.969,47.097,177.001,103.762,255.603,169.484c15.298,12.793,30.274,25.922,44.958,39.374
				c65.062,59.655,124.043,125.787,176.576,196.769c63.685,86.075,117.2,179.58,158.948,278.17
				c41.924,98.985,72.301,202.674,88.171,309.06C4974.951,2408.522,4977.164,2516.637,4963.053,2623.344z"/>
			<circle style="fill:#8DD7F4;" cx="2817.483" cy="439.983" r="224.186"/>
			<path style="fill:#8DD7F4;" d="M2531.4,489.395c-2.506,9.1-13.188,16.031-22.537,12.793
				c-15.02-5.188-30.143-10.052-45.382-14.536c-123.691-36.429-253.186-48.342-381.712-37.469
				c-126.754,10.727-253.039,44.679-367.923,100.407c-105.301,51.097-198.733,119.266-278.023,204.784
				c-0.659,0.703-1.304,1.422-1.949,2.125c-4.41,4.762-8.748,9.583-13.056,14.463c-79.423,89.958-143.269,196.359-188.065,307.404
				c-8.455,20.94-16.309,42.115-23.548,63.494c-10.638,31.461-19.958,63.333-27.856,95.527
				c-15.811,64.139-26.083,129.45-30.348,194.879c-0.645,9.921-7.854,18.317-18.317,18.317c-9.437,0-18.962-8.426-18.317-18.317
				c0.967-14.771,2.198-29.527,3.751-44.254c6.023-57.662,16.339-114.723,30.7-170.729c6.931-27.007,14.8-53.779,23.621-80.258
				c12.763-38.466,27.505-76.316,44.122-113.39c42.73-95.337,98.487-185.31,166.406-264.864c0.674-0.806,1.378-1.612,2.066-2.418
				c12.705-14.786,25.819-29.205,39.359-43.228c89.006-92.201,196.652-164.428,314.276-214.954
				c122.827-52.782,254.695-82.793,388.292-88.493c132.425-5.656,266.315,12.851,391.647,56.197
				C2527.986,470.111,2534.17,479.328,2531.4,489.395z"/>
			<path style="fill:#8DD7F4;" d="M1227.785,1649.45c0,71.129-57.662,128.776-128.791,128.776
				c-71.114,0-128.776-57.647-128.776-128.776c0-71.129,57.662-128.776,128.776-128.776
				C1170.123,1520.674,1227.785,1578.321,1227.785,1649.45z"/>
		</g>
		<path style="opacity:0.53;fill:#ABDFF4;" d="M1114.365,1433.265c0.967-14.771,2.198-29.527,3.751-44.254
			c6.023-57.662,16.339-114.723,30.7-170.729c10.624,6.989,21.482,13.672,32.531,20.105
			c-15.811,64.139-26.083,129.45-30.348,194.879c-0.645,9.921-7.854,18.317-18.317,18.317
			C1123.246,1451.582,1113.721,1443.156,1114.365,1433.265z"/>
		<path style="opacity:0.53;fill:#ABDFF4;" d="M970.218,1649.45c0-71.129,57.662-128.776,128.776-128.776
			c71.128,0,128.791,57.647,128.791,128.776c0,71.129-57.662,128.776-128.791,128.776
			C1027.88,1778.226,970.218,1720.579,970.218,1649.45z"/>
		<path style="opacity:0.53;fill:#ABDFF4;" d="M821.747,2051.267c-10.243,14.17-20.09,28.663-29.512,43.477
			c-1.509,2.374-3.004,4.733-4.484,7.122c-41.338,66.234-74.323,136.821-102.78,209.239c-4.221,10.741-8.338,21.512-12.383,32.326
			c-2.183,5.862-4.352,11.738-6.492,17.628c-1.114,3.048-2.198,6.111-3.282,9.158c-0.835,2.418-1.67,4.821-2.491,7.239
			c-1.348,3.956-2.682,7.927-3.971,11.898c-5.466,16.779-10.404,33.674-14.844,50.701c-13.1,1.744-26.201,3.576-39.301,5.451
			c5.363-21.57,11.591-42.862,18.449-63.963c0.689-2.139,1.392-4.279,2.096-6.404c1.7-5.129,3.429-10.243,5.202-15.342
			c5.231-15.152,10.771-30.201,16.529-45.207c0.777-2.037,1.568-4.074,2.359-6.111c4.088-10.565,8.264-21.101,12.544-31.593
			c11.635-28.545,24.002-56.812,37.352-84.581c0.674-1.451,1.378-2.887,2.081-4.323c13.144-27.183,27.241-53.881,42.466-79.95
			c11.987-20.515,24.662-40.62,38.143-60.241c0.102-0.161,0.22-0.308,0.322-0.469
			C793.744,2048.585,807.753,2049.889,821.747,2051.267z"/>
		<path style="opacity:0.53;fill:#ABDFF4;" d="M4397.101,1595.349c-114.46,70.689-221.753,152.852-329.736,233.33
			c-305.572,227.805-622.296,445.749-972.327,596.549c-350.046,150.8-737.869,232.069-1114.951,176.591
			c-199.538-29.366-391.648-95.996-589.295-136.205c-217.064-44.152-440.635-56.123-661.172-35.535
			c0.44-1.143,0.879-2.286,1.319-3.415c4.22-10.887,8.602-21.687,13.144-32.414c0.542-1.319,1.099-2.623,1.671-3.942
			c0.923-2.213,1.875-4.44,2.843-6.639c7.371-17.042,15.123-33.894,23.226-50.526c28.912-59.347,62.41-116.042,100.025-169.63
			c23.973-34.172,49.632-67.085,76.844-98.604c241.316,28.062,481.87,66.381,724.109,85.255
			c368.539,28.721,752.552,9.305,1085.335-151.607c-511.763,117.874-1037.96-3.693-1544.683-164.853
			c36.165-23.534,73.635-45.236,112.276-64.974c-42.129-103.542-65.341-216.786-65.341-335.465c0-50.57,4.22-100.143,12.309-148.397
			c20.632,9.349,41.455,18.2,62.19,26.743c390.299,160.912,809.672,261.392,1231.769,253.889s847.287-127.252,1189.508-374.459
			c40.093-28.955,79.833-59.977,121.127-87.731c23.065,23.519,39.96,53.09,48.137,86.105c34.026,9.217,67.758,19.563,101.11,31.022
			c-8.235,10.184-16.558,20.31-24.955,30.362c-23.402-7.825-46.979-15.079-70.733-21.79c0.059,1.875,0.088,3.766,0.088,5.656
			c0,36.517-10.433,70.601-28.487,99.425c7.034,1.89,14.038,3.854,21.028,5.876c-129.362,140.851-274.829,266.945-432.795,374.781
			c192.109-109.594,384.672-219.394,580.635-322.043C4190.353,1443.713,4300.049,1512.35,4397.101,1595.349z"/>
		<path style="opacity:0.53;fill:#ABDFF4;" d="M4535.372,1518.153c-11.591,5.788-23.124,11.708-34.583,17.76
			c-29.82-26.787-60.886-52.167-93.095-75.994c-67.363-49.822-139.034-93.182-213.87-130.154
			c13.643-6.872,27.3-13.686,40.986-20.471c90.969,47.097,177.001,103.762,255.603,169.484
			C4505.713,1491.572,4520.689,1504.701,4535.372,1518.153z"/>
		<path style="fill:#8DD7F4;" d="M4661.642,3219.249c-0.234,0.161-0.483,0.308-0.732,0.455
			c-10.39,6.169-27.944,12.191-52.123,18.053c0.059-0.015,0.103-0.029,0.161-0.044
			C4626.049,3232.276,4644.146,3225.843,4661.642,3219.249z"/>
		<g>
			<path style="fill:#6391CC;" d="M1810.603,3275.87c-1.04,14.361-4.938,28.384-7.385,42.554c0,0.015,0,0.015,0,0.029h-16.427
				c0-0.176,0.015-0.366,0.015-0.542c-90.383-2.843-176.811-6.125-258.651-9.774c-0.44-0.015-0.894-0.044-1.333-0.059
				c-4.704-0.205-9.408-0.425-14.082-0.63c-6.331-0.293-12.631-0.586-18.903-0.879h-0.015c-2.696-0.117-5.393-0.249-8.089-0.381
				c-0.249,0-0.513-0.015-0.762-0.029c-1.421-0.074-2.843-0.132-4.265-0.205h-0.014c-4.777-0.22-9.525-0.454-14.273-0.689
				c-1.333-0.059-2.667-0.117-4-0.191c-0.718-0.029-1.436-0.073-2.139-0.102c-3.004-0.147-5.993-0.293-8.968-0.44
				c-6.902-0.337-13.76-0.674-20.574-1.026c-6.36-0.323-12.69-0.645-18.991-0.968c-0.806-0.043-1.627-0.088-2.432-0.132
				c-21.805-1.143-43.214-2.301-64.212-3.488c-31.168-1.773-61.443-3.604-90.765-5.51c-10.961-8.968-21.731-18.214-32.282-27.68
				c-8.851-7.898-17.57-16.002-26.113-24.252c-5.715-5.51-11.313-11.078-16.881-16.72c-5.363-5.421-10.741-11.049-15.445-17.101
				c-0.762-0.938-1.495-1.905-2.183-2.872c-1.641-2.213-3.18-4.455-4.557-6.799c-3.517-5.803-6.257-11.958-7.723-18.61
				c-0.323-1.451-0.601-2.916-0.806-4.382c0,0,0,0,0-0.029c-1.202-8.733-0.322-17.614,1.509-26.376
				c1.113-5.304,2.564-10.551,4.103-15.694c0.85-2.784,1.7-5.568,2.594-8.353c0.293-0.923,0.601-1.832,0.923-2.755
				c4.85-14.756,10.463-29.366,16.573-43.844c5.1-12.192,10.551-24.296,16.134-36.37c19.518-42.027,40.913-83.526,56.841-125.743
				c1.568-4.177,3.106-8.382,4.542-12.602c3.619-10.345,6.858-20.72,9.613-31.183v-0.015c6.624-25.146,10.506-50.716,10.125-76.946
				c-0.073-6.257-0.396-12.573-0.996-18.904c-7.268-77.708-54.423-152.559-38.304-228.919c8.528-40.415,34.231-75.92,40.795-116.672
				c5.129-32.106-2.022-64.71-7.356-96.758c-1.451-8.661-2.3-18.83,3.971-24.941c13.174-12.851,32.165,7.766,39.286,24.735
				c30.802,73.385,74.865,141.188,129.392,199.158c2.681,2.872,5.392,5.715,8.147,8.528c1.378,1.421,2.784,2.828,4.176,4.249
				c3.385,3.444,6.829,6.902,10.302,10.345c0.718,0.704,1.421,1.422,2.139,2.125c31.183,31.051,63.773,62.908,80.932,101.022v0.015
				c0,0.029,0,0.029,0,0.044c5.745,12.807,9.745,26.333,11.357,40.766c2.872,25.893-2.593,52.416,2.506,77.958
				c6.418,31.959,27.578,56.709,51.625,79.745l0.014,0.015c5.422,5.202,10.99,10.302,16.573,15.386
				c9.012,8.206,18.024,16.339,26.509,24.662c3.312,3.239,6.521,6.536,9.627,9.92l0.014,0.015
				c3.678,3.912,7.195,7.884,10.624,11.972c4.85,5.759,9.496,11.664,13.907,17.731c24.691,33.791,42.833,72.169,54.262,112.613
				c3.839,13.569,6.888,27.358,9.188,41.294c2.462,14.8,4.045,29.747,4.762,44.738c0.366,7.884,0.498,15.797,0.396,23.709
				c0,1.348-0.059,2.682-0.102,4.044c-0.059,3.326-0.176,6.682-0.366,10.023c2.989,1.656,5.891,3.487,8.675,5.466
				c7.84,5.48,14.917,12.031,21.072,19.387c1.729,2.022,3.37,4.088,4.909,6.228
				C1804.258,3225.227,1812.435,3250.607,1810.603,3275.87z"/>
			<path style="fill:#215CAC;" d="M1786.806,3317.912c-90.383-2.843-176.811-6.125-258.651-9.774
				c-0.44-0.015-0.894-0.044-1.333-0.059c-4.704-0.205-9.408-0.425-14.082-0.63c-6.331-0.293-12.631-0.586-18.903-0.879h-0.015
				c-2.696-0.117-5.393-0.249-8.089-0.381c-0.249,0-0.513-0.015-0.762-0.029c-1.421-0.074-2.843-0.132-4.265-0.205h-0.014
				c-4.777-0.22-9.525-0.454-14.273-0.689c-1.333-0.059-2.667-0.117-4-0.191c-0.718-0.029-1.436-0.073-2.139-0.102
				c-3.004-0.147-5.993-0.293-8.968-0.44c-6.902-0.337-13.76-0.674-20.574-1.026c-6.36-0.323-12.69-0.645-18.991-0.968
				c-0.806-0.043-1.627-0.088-2.432-0.132c-21.805-1.143-43.214-2.301-64.212-3.488c-31.168-1.773-61.443-3.604-90.765-5.51
				c-6.887-0.439-13.73-0.879-20.515-1.333c-11.063-0.733-21.995-1.48-32.765-2.227c-6.975-0.484-13.892-0.982-20.735-1.466
				c-0.117-10.169,2.74-19.987,6.828-29.41c0-0.029,0-0.029,0-0.029c2.169-5.07,4.718-10.023,7.341-14.844
				c0.484-0.879,0.967-1.744,1.451-2.623c2.711-4.939,5.539-9.847,8.455-14.698c4.162-6.931,8.499-13.833,13.012-20.632
				c0.293-0.469,0.601-0.909,0.894-1.363c5.217-7.884,10.624-15.709,16.192-23.446c4.616-6.491,9.335-12.924,14.097-19.313
				c6.125-8.264,12.338-16.441,18.566-24.633c6.463-8.499,12.954-16.984,19.343-25.497c13.979-18.522,27.564-37.118,39.931-56.153
				v-0.015c2.535-3.883,4.997-7.796,7.4-11.694c5.378-8.733,10.463-17.599,15.181-26.552c9.247-17.658,17.057-35.828,22.801-54.775
				c4.323-14.243,7.502-28.941,9.203-44.181c1.377-12.323,1.758-24.779,1.538-37.308c0,0-0.014,0,0-0.014
				c-0.366-22.479-2.637-45.177-4.455-67.686c-0.029-0.059-0.029-0.117-0.029-0.176c-3.546-43.873-5.334-87.043,12.045-126.754
				c8.118-18.522,20.046-35.081,31.828-51.654c0.015-0.015,0.015-0.029,0.029-0.044c12.236-17.247,24.325-34.568,31.813-54.219
				c2.022-5.305,3.678-10.683,5.026-16.134c0-0.015,0-0.015,0-0.015c0.718-2.857,1.348-5.729,1.905-8.617
				c2.052-10.433,3.18-21.057,3.868-31.798v-0.029c0.718-10.521,1.011-21.116,1.392-31.652c0.088-2.667,0.19-5.32,0.293-7.972
				c0.337-8.792,1.582-18.903,8.983-23.622c5.216-3.326,10.301-2.828,14.873,0c4.381,2.696,8.308,7.517,11.474,13.115
				c3.311,5.906,5.788,12.705,7.004,18.83c0.029,0.088,0.044,0.176,0.059,0.264c8.528,43.771,21.482,86.588,38.539,127.765v0.044
				c0,0.015,0.015,0.029,0.015,0.044c14.873,35.96,32.927,70.66,53.837,103.484c14.185,22.259,30.025,44.796,43.477,68.066
				c0,0,0,0.015,0.015,0.015c5.276,9.144,10.214,18.39,14.493,27.769c9.774,21.292,16.353,43.243,16.925,66.176
				c0,0.015,0,0.015,0,0.015s0,0,0,0.029c0.132,5.085-0.044,10.17-0.527,15.342c-0.572,5.964-1.583,11.884-2.799,17.76
				c-4.073,19.68-10.492,39.022-10.624,59.069v1.421c0.22,35.111,18.889,65.546,39.77,95c7.59,10.697,15.474,21.248,22.874,31.842
				c1.934,2.77,3.839,5.539,5.7,8.323c5.378,8.045,10.375,16.324,14.947,24.794c3.517,6.433,6.785,12.983,9.847,19.636
				c0.528,1.143,1.026,2.271,1.539,3.414c2.359,5.319,4.601,10.698,6.667,16.119c2.667,6.902,5.07,13.892,7.268,20.94
				c0.498,1.553,0.952,3.107,1.421,4.675C1782.849,3241.302,1787.685,3279.622,1786.806,3317.912z"/>
			<g>
				<g>
					<path style="fill:#6391CC;" d="M1345.102,3298.92c-31.168-1.773-61.443-3.604-90.765-5.51
						c-6.887-0.439-13.73-0.879-20.515-1.333c-11.063-0.733-21.995-1.48-32.765-2.227c-6.975-0.484-13.892-0.982-20.735-1.466
						c-99.323-7.151-185.896-15.005-257.479-23.431c-31.344-15.372-62.805-30.583-93.358-47.405
						c-5.055-2.784-10.067-5.641-15.079-8.528h-0.029c-2.418-1.378-4.836-2.814-7.224-4.235c-3.517-2.066-7.005-4.206-10.507-6.345
						c-15.797-9.73-31.242-20.119-46.027-31.271c-41.059-30.905-76.99-67.7-101.227-112.731
						c-10.184-18.918-18.141-40.107-19.929-61.311c-0.645-7.883-0.44-15.767,0.806-23.563c0.659-4.088,1.626-8.162,2.916-12.192
						c0.982-3.092,2.227-6.111,3.707-9.027c0.22-0.454,0.454-0.909,0.689-1.363c2.784-5.276,6.301-10.199,10.346-14.625
						c9.774-10.712,22.713-18.478,36.224-21.013c9.246-1.744,18.771-1.026,27.71,2.857c-22.742-18.009-44.371-37.323-64.945-57.72
						c-6.052-5.993-12.016-12.074-17.892-18.244c-3.531-3.707-7.048-7.459-10.507-11.225
						c-14.302-15.503-28.047-31.505-41.294-47.932c-5.32-6.579-10.551-13.218-15.709-19.929
						c-5.261-6.858-10.434-13.76-15.518-20.691c-3.209-4.426-6.403-8.807-9.554-13.276c-5.451-7.635-10.785-15.357-16.046-23.094
						c-14.405-21.292-28.487-44.43-35.418-68.799c-3.283-11.562-4.938-23.431-4.25-35.476c0.088-1.7,0.234-3.4,0.41-5.099
						c3.063-26.743,24.281-51.874,48.606-59.435c11.459-3.59,23.593-3.268,34.817,2.594c-12.925-9.627-25.644-19.563-38.085-29.864
						c-0.747-0.586-1.495-1.216-2.242-1.832c-24.003-19.988-46.994-41.133-68.916-63.392c-6.345-6.462-12.587-13.012-18.756-19.65
						c-15.225-16.397-29.864-33.337-43.858-50.819c-2.242-2.784-4.469-5.613-6.653-8.485c-7.752-10.155-15.166-20.911-21.379-32.121
						c-8.455-15.196-14.668-31.198-16.529-47.58c-0.967-8.441-0.733-16.955,0.923-25.541c0.059-0.425,0.161-0.835,0.249-1.246
						c2.139-10.258,6.682-19.504,12.939-27.505c25.087-32.091,77.459-44.005,110.825-18.507
						c-27.036-23.563-50.98-52.988-58.351-88.068c-7.414-35.096,5.745-76.199,37.44-92.933c45.28-23.885,99,9.671,136.484,44.576
						c39.33,36.649,75.525,76.624,108.085,119.398c2.55,3.341,5.07,6.696,7.562,10.067c-2.564-4.616-4.381-9.452-5.48-14.39
						c-6.902-30.699,13.012-65.575,42.466-79.95c4.821-2.359,9.906-4.162,15.181-5.304c10.418-2.286,20.954-2.448,31.285-0.865
						c4.748,0.718,9.452,1.817,14.068,3.238c26.347,8.162,50.145,27.168,65.34,50.643c1.641,2.55,3.21,5.144,4.689,7.767
						c19.827,35.066,25.366,76.917,26.025,117.419c0.63,38.217-2.609,76.609-0.161,114.679
						c0.469-22.742,11.269-45.309,29.293-59.333c13.335-10.345,30.26-15.738,47.141-15.738c1.231,0,2.476,0.029,3.722,0.103
						c9.979,0.454,19.87,2.828,28.882,7.166c2.271,1.114,4.455,2.286,6.565,3.546c40.957,24.647,51.258,81.093,56.036,130.066
						c0.073,0.528,0.117,1.055,0.161,1.583c3.605,37.557,7.21,75.129,10.8,112.701c2.784,28.78,5.539,57.574,8.308,86.354
						c0.249-20.09,14.038-38.92,32.458-48.723c3.722-1.993,7.649-3.604,11.679-4.806c3.707-1.099,7.517-1.832,11.357-2.139
						c23.182-1.832,45.588,8.44,62.762,24.515c6.506,6.096,12.28,13.042,17.042,20.457c17.291,27.021,23.519,59.582,26.904,91.482
						c0.894,8.514,1.626,17.013,2.154,25.527c2.095,30.992,2.066,62.073,0.85,93.182c0.029,0,0,0.015,0,0.015
						c-0.528,13.892-1.304,27.783-2.257,41.66c-0.381,5.92-0.821,11.796-1.275,17.731c0,0,0.014,0.015,0,0.015c0,0,0,0,0,0.015
						c-1.568,20.779-3.414,41.557-5.275,62.307c7.84-11.063,21.013-14.947,34.348-13.452h0.015c2.301,0.22,4.587,0.645,6.858,1.216
						c11.313,2.784,22.142,9.261,29.234,18.361c12.045,15.43,16.427,34.817,18.361,54.614c0.791,7.884,1.172,15.855,1.495,23.651
						c0.044,0.806,0.073,1.641,0.117,2.433c0,0.015,0,0.015,0,0.015c-0.015,0.015-0.015,0.015,0,0.015
						c0.454,10.946,0.938,21.863,1.407,32.839c1.011,24.003,2.022,47.947,3.033,71.935c0.234,5.378,0.454,10.756,0.689,16.133
						c0.073,1.451,0.117,2.873,0.19,4.323c0.132,3.136,0.249,6.286,0.381,9.407l0.41,9.51c0.425,9.613,0.835,19.255,1.231,28.867
						c0.22,5.144,0.425,10.316,0.659,15.474c0.161,3.619,0.293,7.253,0.454,10.888c0.352,8.44,0.718,16.881,1.084,25.336
						C1345.028,3296.21,1345.072,3297.558,1345.102,3298.92z"/>
				</g>
				<path style="fill:#215CAC;" d="M1233.822,3292.077c-11.063-0.733-21.995-1.48-32.765-2.227
					c-4.294-9.613-8.939-19.929-13.906-30.875c0-0.029,0-0.029,0-0.029c-7.166-15.811-15.035-32.956-23.534-51.288
					c-0.44-0.967-0.908-1.905-1.333-2.872c-1.011-2.154-2.022-4.352-3.063-6.55c-3.517-7.561-7.122-15.313-10.873-23.241
					c0,0,0,0,0-0.029c-4.88-10.345-9.906-20.984-15.108-31.915c-1.583-3.312-3.18-6.638-4.777-9.994
					c-4.161-8.689-8.426-17.54-12.793-26.582c-1.671-3.444-3.356-6.946-5.055-10.434l-95.293-18.991h-0.029l-92.787-18.493
					c-0.044,0-0.088-0.014-0.146-0.014l-141.803-28.252l315.317,35.564c-5.759-11.752-11.694-23.709-17.746-35.872l-0.014-0.015
					c-8.529-17.145-17.394-34.67-26.494-52.548c-3.971-7.781-8.001-15.679-12.075-23.578
					c-31.491-61.208-67.846-129.465-108.115-201.018l-265.641-93.3l-32.927-11.562l33.469,8.47l245.683,62.161
					c-13.071-22.874-26.523-46.027-40.327-69.312c-2.345-3.986-4.704-7.942-7.092-11.943
					c-25.131-42.158-51.361-84.771-78.514-127.091c-0.645-1.011-1.275-1.993-1.92-2.99c-2.388-3.722-4.777-7.429-7.195-11.122
					c-4.806-7.429-9.612-14.829-14.478-22.215c0-0.015-0.015-0.015-0.015-0.029c-1.011-1.553-2.037-3.106-3.092-4.66
					c-0.014-0.015-0.014-0.03-0.029-0.044c-9.349-14.258-18.83-28.443-28.413-42.525c-1.817-2.696-3.663-5.392-5.495-8.074
					c-0.015,0-0.015,0-0.015,0l-69.077-29.234l-23.622-9.994l-9.979-4.22l-135.854-57.486l141.056,42.144l34.861,10.418
					l32.121,9.598l4.631,1.377c-0.191-0.264-0.396-0.542-0.586-0.821h-0.015c-8.733-12.411-17.526-24.735-26.376-36.942
					c-8.528-11.752-17.115-23.416-25.746-34.949c-28.355-37.865-57.281-74.47-86.662-109.213c-5.172-6.11-4.381-15.284,1.729-20.442
					c6.111-5.188,15.298-4.411,20.442,1.7c25.409,30.054,51.112,62.204,77.034,96.362c1.363,1.802,2.74,3.605,4.103,5.422
					c7.151,9.452,14.302,19.05,21.482,28.794c18.361,24.94,36.839,50.878,55.376,77.752c1.26,1.788,2.491,3.591,3.736,5.393
					c0.718,1.04,1.436,2.095,2.154,3.136l1.143-6.624l1.216-7.093l24.486-142.096l-1.26,91.57l-0.879,64.652l-0.381,28.926
					l-4.704-0.44c8.104,12.074,16.236,24.325,24.384,36.766c5.422,8.294,10.873,16.646,16.31,25.116
					c0.015,0,0.015,0.015,0.015,0.015c7.239,11.196,14.463,22.567,21.702,34.07c0,0.015,0.014,0.015,0.014,0.029
					c6.624,10.448,13.218,21.013,19.826,31.696c17.233,27.871,34.524,56.489,51.845,85.826l10.799-54.35l7.84-39.492v-0.014
					l15.079-75.862l0.791-3.913l-0.264,4.206l-5.07,81.958v0.015l-2.813,45.031l-4.894,79.159
					c48.123,83.071,96.289,171.433,143.928,264.015c0.044,0.088,0.088,0.176,0.132,0.278l59.406-178.159v-0.015l0.674-1.993
					l-0.44,2.228l-41.66,213.152c1.451,2.828,2.857,5.612,4.249,8.426c2.608,5.144,5.173,10.243,7.737,15.328
					c8.499,16.925,16.735,33.498,24.692,49.69l0.015,0.015c12.192,24.75,23.724,48.532,34.582,71.231
					c0.601,1.289,1.216,2.549,1.817,3.81c4.894,10.228,9.627,20.237,14.229,29.981c0.249,0.557,0.528,1.114,0.777,1.656
					c7.59,16.09,14.785,31.505,21.555,46.1c0.381,0.85,0.776,1.671,1.143,2.506c3.517,7.562,6.873,14.903,10.141,21.995
					c6.345,13.877,12.236,26.89,17.658,38.949C1226.275,3275.079,1230.188,3283.871,1233.822,3292.077z"/>
			</g>
			<g>
				<g>
					<path style="fill:#E4F5FD;" d="M2393.217,2590.74c-36.81,54.116-99.293,85.182-161.952,104.217
						c-62.19,18.874-132.352,31.286-173.514,81.591c-18.507,22.654-28.867,50.658-42.627,76.433
						c-26.069,48.914-65.238,90.765-112.32,120.013c-50.789,31.52-109.902,48.342-161.996,76.902
						c-12.88,7.034-25.292,14.8-37.088,23.651c-0.645,0.484-1.29,0.967-1.934,1.495c-45.06,34.451-82.427,81.533-116.408,129.743
						c-5.993,8.499-11.884,17.057-17.672,25.571c-4.953,7.21-9.818,14.405-14.654,21.556c-6.316,9.364-12.573,18.61-18.771,27.666
						c-8.162,11.899-15.328,21.16-21.541,27.871c-6.331-0.293-12.631-0.586-18.903-0.879h-0.015
						c-2.696-0.117-5.393-0.249-8.089-0.381c-0.249,0-0.513-0.015-0.762-0.029c-1.421-0.074-2.843-0.132-4.265-0.205
						c-0.029-0.161-0.073-0.322-0.102-0.498c-0.015-0.088-0.029-0.176-0.044-0.264c-0.029-0.088-0.044-0.19-0.059-0.278
						c-0.015-0.059-0.029-0.117-0.044-0.191c-0.088-0.41-0.161-0.835-0.234-1.26c-0.073-0.44-0.147-0.879-0.22-1.319
						c-0.044-0.293-0.088-0.586-0.132-0.894c-0.088-0.615-0.176-1.246-0.249-1.905c-0.015-0.044-0.015-0.103-0.029-0.161
						c-0.029-0.234-0.059-0.469-0.088-0.703c-0.278-2.491-0.484-5.172-0.645-8.074c-0.484-9.701-0.22-21.658,0.689-35.711
						c1.114-16.412,3.224-33.059,6.213-49.91c19.87-111.485,78.675-230.531,140.103-331.802
						c11.064-18.214,22.186-35.843,33.176-52.753c7.59-11.65,15.108-22.963,22.508-33.879
						c124.087-183.244,303.623-334.967,516.57-395.179c62.835-17.775,138.155-24.691,186.086,19.592
						C2432.298,2455.179,2429.983,2536.595,2393.217,2590.74z"/>
					<path style="fill:#215CAC;" d="M2202.295,2463.913c-20.119,9.95-38.715,23.958-56.636,37.689
						c-59.216,45.368-118.445,90.75-177.646,136.103c-28.237,21.629-56.46,43.272-83.467,66.396
						c-77.752,66.645-144.822,145.686-198,233.183c-7.093,11.62-13.907,23.402-20.486,35.315c-1.363,2.462-2.696,4.924-4.045,7.4
						c-16.177,29.864-31.212,60.432-49.69,88.918c-17.584,27.124-38.304,52.357-52.797,81.254
						c-20.529,40.986-27.695,87.644-47.536,128.923l-0.015,0.015c-0.513,1.055-1.026,2.125-1.568,3.18
						c-0.117,0.249-0.234,0.498-0.366,0.747c-4.147,8.221-9.701,16.456-16.207,23.534h-0.015c-2.696-0.117-5.393-0.249-8.089-0.381
						c-0.249,0-0.513-0.015-0.762-0.029c-1.421-0.074-2.843-0.132-4.265-0.205h-0.014c-0.044-0.161-0.073-0.322-0.088-0.498
						c-0.015-0.088-0.029-0.176-0.044-0.264c-0.029-0.088-0.044-0.19-0.059-0.278c-0.015-0.059-0.029-0.117-0.044-0.191
						c-0.088-0.41-0.161-0.835-0.234-1.26c-0.073-0.44-0.147-0.879-0.22-1.319c-0.044-0.293-0.088-0.586-0.132-0.894
						c-0.088-0.615-0.176-1.246-0.249-1.905c-0.015-0.044-0.015-0.103-0.029-0.161c-0.015-0.234-0.044-0.469-0.073-0.703
						l5.158-3.883c0.806-2.594,1.612-5.188,2.418-7.781c41.836-133.187,99.264-262.227,174.906-379.251
						c4.586-7.092,9.246-14.141,13.965-21.145c0,0,0,0,0-0.015c25.673-38.085,53.339-74.806,83.101-109.887
						C1877.38,2637.016,2029.909,2524.242,2202.295,2463.913z"/>
				</g>
				<g>
					<path style="fill:#E4F5FD;" d="M1468.104,3290.495c-0.161,2.857-0.366,5.524-0.645,7.986c-0.015,0.147-0.029,0.308-0.059,0.455
						c0,0.059-0.015,0.132-0.029,0.205c-0.073,0.659-0.161,1.319-0.249,1.949c-0.088,0.63-0.19,1.246-0.278,1.861
						c-0.132,0.806-0.264,1.568-0.425,2.315c-1.333-0.059-2.667-0.117-4-0.191c-0.718-0.029-1.436-0.073-2.139-0.102
						c-3.004-0.147-5.993-0.293-8.968-0.44c-6.902-0.337-13.76-0.674-20.574-1.026c-5.378-6.242-11.386-14.214-18.039-23.929
						c-6.14-8.968-12.324-18.127-18.595-27.388c-4.762-7.034-9.569-14.141-14.405-21.262c-5.949-8.719-11.972-17.452-18.112-26.142
						c-7.078-10.052-14.302-20.031-21.702-29.864c-16.69-22.186-34.348-43.594-53.383-63.025
						c-13.643-13.921-28.003-26.875-43.243-38.349c-16.603-12.485-34.524-22.786-53.075-31.974
						c-30.758-15.24-63.318-27.476-94.736-41.778c-14.976-6.785-29.688-14.053-43.829-22.376c-2.476-1.421-4.968-2.916-7.429-4.426
						c-47.097-29.249-86.281-71.099-112.349-120.013c-13.745-25.775-24.12-53.779-42.628-76.433
						c-41.132-50.306-111.323-62.718-173.484-81.591c-17.775-5.393-35.52-11.752-52.68-19.343
						c-18.127-8.015-35.594-17.379-51.713-28.399c-12.676-8.675-24.516-18.376-35.169-29.234
						c-8.221-8.367-15.738-17.423-22.42-27.241c-11.606-17.101-19.797-36.927-24.003-57.457c-1.875-9.012-2.96-18.156-3.268-27.27
						c-1.187-35.799,10.052-71.011,36.282-95.249c16.573-15.313,36.414-24.501,57.896-29.219c3.971-0.879,8.001-1.597,12.075-2.184
						c9.012-1.289,18.244-1.89,27.593-1.905c11.445-0.015,23.05,0.835,34.612,2.359c1.363,0.161,2.696,0.352,4.03,0.557h0.015
						c14.023,1.993,27.915,4.968,41.367,8.484c1.817,0.469,3.619,0.967,5.407,1.451c0.542,0.146,1.084,0.308,1.626,0.454
						c0.484,0.147,0.982,0.279,1.465,0.41c7.415,2.095,14.786,4.308,22.098,6.624c56.885,17.965,111.279,42.451,162.729,72.286
						c0.19,0.088,0.366,0.19,0.527,0.293c51.83,30.099,100.685,65.604,146.112,105.33c13.906,12.133,27.519,24.692,40.766,37.63
						c48.679,47.39,92.846,99.645,131.897,155.036c4.206,5.949,8.352,11.957,12.441,17.98c1.949,2.872,3.912,5.788,5.891,8.734
						c33.352,49.749,68.916,107.074,100.509,167.623c28.15,53.881,53.119,110.371,70.586,166.377c0,0.015,0,0.015,0.015,0.029
						c7.957,25.409,14.361,50.745,18.786,75.671c2.989,16.852,5.114,33.498,6.213,49.91c0.073,0.923,0.117,1.846,0.19,2.74
						C1468.382,3270.361,1468.559,3281.409,1468.104,3290.495z"/>
					<path style="fill:#215CAC;" d="M1467.459,3298.481c-0.015,0.147-0.029,0.308-0.059,0.455c0,0.073-0.015,0.132-0.015,0.19
						c-0.073,0.674-0.161,1.334-0.264,1.964c-0.088,0.63-0.19,1.246-0.278,1.861c-0.132,0.806-0.264,1.568-0.425,2.315
						c-1.333-0.059-2.667-0.117-4-0.191c-0.718-0.029-1.436-0.073-2.139-0.102c-3.004-0.147-5.993-0.293-8.968-0.44
						c-5.729-6.594-10.624-14.053-14.375-21.497c-0.088-0.19-0.191-0.366-0.278-0.557c-0.528-1.041-1.041-2.095-1.539-3.136
						l-0.015-0.014c-19.944-41.338-27.095-88.083-47.668-129.157c-14.273-28.457-34.568-53.368-51.991-80.023v-0.029
						c-0.278-0.41-0.542-0.791-0.806-1.202c-2.813-4.352-5.553-8.734-8.206-13.174v-0.015
						c-16.324-27.021-30.275-55.464-45.514-83.13c-0.513-0.924-1.011-1.846-1.539-2.755c-9.203-16.573-18.888-32.854-29.087-48.855
						v-0.015c0-0.015,0-0.015,0-0.015c-1.07-1.714-2.169-3.429-3.268-5.129c-35.374-54.892-76.287-106.209-121.904-152.94
						c-0.073-0.073-0.146-0.161-0.234-0.22v-0.015c-19.944-20.427-40.781-39.975-62.469-58.556
						c-26.992-23.123-55.229-44.767-83.467-66.396c-17.54-13.438-35.081-26.875-52.636-40.327
						c-5.187-3.971-10.375-7.942-15.562-11.928c-27.49-21.057-54.995-42.129-82.485-63.201c-8.983-6.887-17.966-13.76-26.948-20.647
						c-12.529-9.598-25.366-19.328-38.832-27.68c0-0.015-0.015-0.015-0.015-0.015v-0.015c-5.803-3.619-11.723-6.975-17.789-9.979
						c4.909,1.714,9.803,3.473,14.668,5.275c15.914,5.876,31.637,12.207,47.185,18.962h0.015v0.015l0.015,0.015
						c38.554,16.72,75.95,36.077,112.027,57.75v0.015c3.531,2.095,7.034,4.235,10.536,6.389v0.015
						c97.3,60.051,184.738,136.879,258.768,224.171c23.24,27.388,45.192,55.772,65.927,85.035v0.015
						c2.476,3.473,4.924,6.96,7.356,10.463v0.015c32.282,46.525,61.501,95.19,87.834,145.437
						c45.104,86.016,81.767,176.708,110.869,269.407c0.806,2.564,1.612,5.144,2.403,7.708L1467.459,3298.481z"/>
				</g>
				<g>
					<path style="fill:#E4F5FD;" d="M2409.013,3047.831c-13.173,17.291-30.699,31.857-38.642,52.064
						c-5.979,15.181-6.023,32.399-13.452,46.906c-14.39,28.164-51.244,36.531-82.705,33.337
						c-31.447-3.224-62.146-14.698-93.725-13.203c-39.594,1.875-75.583,23.783-114.679,30.143
						c-27.314,4.44-55.229,1.172-82.793-1.055c-66.088-5.305-132.645-4.455-198.586,2.535c-4.586,0.484-9.217,1.011-13.804,1.553
						c-0.747,0.073-1.495,0.161-2.242,0.264c-5.422,0.645-10.829,1.348-16.251,2.11c-4.982,0.718-9.95,1.465-14.917,2.3
						c-2.857,0.454-5.685,0.967-8.514,1.495c-27.27,4.982-54.028,12.324-78.895,24.398c-41.983,20.384-78.294,54.043-119.031,75.378
						c-1.319,0.689-2.638,1.363-3.956,2.022c-4.704-0.205-9.408-0.425-14.082-0.63c-6.331-0.293-12.631-0.586-18.903-0.879h-0.015
						c-2.696-0.117-5.393-0.249-8.089-0.381c3.663-5.964,8.016-11.474,12.954-16.456l0.015-0.015
						c1.377-1.377,2.813-2.74,4.279-4.044l8.968-6.535l0.044-0.044l26.054-19.035c9.671-10.125,19.562-20.031,29.659-29.703
						c9.056-8.719,18.258-17.247,27.636-25.571c40.415-36.033,83.731-68.74,129.318-97.901c8.368-5.378,16.808-10.595,25.336-15.694
						c131.56-78.939,280.632-128.805,433.41-142.946c68.901-6.389,140.104-5.466,204.887,18.786
						c11.782,4.396,23.9,10.067,30.743,20.603C2430.906,3005.819,2422.172,3030.554,2409.013,3047.831z"/>
					<path style="fill:#215CAC;" d="M2280.398,3049.047c-76.711-1.773-109.887,0.279-163.783,11.356
						c-67.934,13.98-134.711,33.088-201.4,52.138c-53.002,15.152-106.825,30.787-158.523,50.511c-0.557,0.19-1.084,0.396-1.641,0.63
						c-3.883,1.495-7.766,3.004-11.65,4.543c-1.905,0.762-3.839,1.539-5.744,2.33c-25.043,10.155-49.5,21.424-73.004,34.231
						c-33.103,18.024-64.374,39.081-92.772,64.344c-13.76,12.236-26.772,25.409-41.104,36.927c-0.865,0.703-1.744,1.392-2.623,2.081
						c-0.44-0.015-0.894-0.044-1.333-0.059c-4.704-0.205-9.408-0.425-14.082-0.63c-6.331-0.293-12.631-0.586-18.903-0.879h-0.015
						c-2.696-0.117-5.393-0.249-8.089-0.381c-0.249,0-0.513-0.015-0.762-0.029c-1.421-0.074-2.843-0.132-4.265-0.205h-0.014
						c-4.777-0.22-9.525-0.454-14.273-0.689c-1.333-0.059-2.667-0.117-4-0.191c0.484-0.821,0.821-1.377,0.997-1.582
						c1.216-1.495,2.55-2.975,3.956-4.352l0.015-0.015c1.861-1.861,3.868-3.59,6.008-5.187c1.729-1.304,3.561-2.506,5.466-3.531
						c2.623-1.495,5.378-2.711,8.235-3.59c2.315-0.733,4.689-1.246,7.107-1.495c-0.996,2.755-1.202,6.008-1.905,8.279
						c2.125-1.26,4.264-2.535,6.389-3.869l0.015-0.015c3.942-2.388,7.825-4.88,11.708-7.429
						c14.478-9.54,28.575-19.885,42.642-30.377c21.922-16.266,43.785-32.868,66.952-47.126c1.891-1.172,3.781-2.3,5.656-3.429
						c38.583-22.831,78.558-43.316,119.647-61.355c3.151-1.392,6.301-2.74,9.452-4.074c6.155-2.667,12.368-5.246,18.581-7.766
						c101.843-41.455,209.84-67.963,319.361-78.089C2155.081,3044.314,2217.959,3043.874,2280.398,3049.047z"/>
				</g>
				<g>
					<path style="fill:#E4F5FD;" d="M1460.279,3304.973c-3.004-0.147-5.993-0.293-8.968-0.44c-6.902-0.337-13.76-0.674-20.574-1.026
						c-6.36-0.323-12.69-0.645-18.991-0.968c-0.806-0.043-1.627-0.088-2.432-0.132c-22.581-12.661-43.946-28.78-65.868-43.771
						c-15.035-10.331-30.318-20.119-46.467-27.959c-25.087-12.192-52.079-19.548-79.569-24.53c-2.623-0.484-5.217-0.953-7.839-1.363
						c-5.466-0.923-10.961-1.744-16.456-2.506c-4.909-0.688-9.818-1.304-14.727-1.905c-6.389-0.792-12.778-1.495-19.167-2.139
						c-0.777-0.088-1.568-0.161-2.344-0.249c-64.125-6.463-128.85-7.136-193.106-1.964c-27.563,2.228-55.478,5.495-82.793,1.055
						c-39.125-6.36-75.085-28.267-114.679-30.143c-5.232-0.249-10.463-0.132-15.68,0.235c-26.112,1.861-51.815,10.272-78.045,12.969
						c-2.609,0.264-5.261,0.454-7.943,0.542c-29.497,1.128-61.575-8.059-74.763-33.879c-7.43-14.507-7.473-31.725-13.452-46.906
						c-7.957-20.208-25.497-34.773-38.642-52.064c-13.159-17.277-21.892-42.012-10.023-60.197
						c6.843-10.536,18.962-16.207,30.729-20.603c14.141-5.29,28.604-9.466,43.258-12.69c11.605-2.564,23.343-4.528,35.154-5.993
						c0.322-0.044,0.63-0.073,0.952-0.117c3.59-0.439,7.195-0.82,10.815-1.172c37.953-3.634,76.682-2.33,114.694,1.187
						c108.451,10.023,214.998,38.084,314.76,81.723l0.014,0.015c14.141,6.169,28.15,12.676,42.012,19.504l0.015,0.015
						c18.244,8.924,36.209,18.42,53.896,28.443c32.077,18.141,63.172,37.982,93.109,59.45c25.41,18.185,49.984,37.528,73.605,57.985
						c3.576,3.106,7.136,6.228,10.682,9.407c9.584,8.529,19.02,17.247,28.252,26.142c9.891,9.51,19.577,19.226,29.044,29.131
						l26.362,19.27l0.015,0.014l8.66,6.331c1.465,1.304,2.916,2.667,4.293,4.044l0.029,0.015
						C1452.674,3294.378,1456.777,3299.478,1460.279,3304.973z"/>
					<path style="fill:#215CAC;" d="M1484.971,3306.16c-1.421-0.074-2.843-0.132-4.265-0.205h-0.014
						c-4.777-0.22-9.525-0.454-14.273-0.689c-1.333-0.059-2.667-0.117-4-0.191c-0.718-0.029-1.436-0.073-2.139-0.102
						c-3.004-0.147-5.993-0.293-8.968-0.44c-6.902-0.337-13.76-0.674-20.574-1.026c-6.36-0.323-12.69-0.645-18.991-0.968
						c-12.676-10.624-24.457-22.405-36.854-33.41c-10.346-9.188-21.057-17.834-32.106-25.967
						c-19.299-14.214-39.594-26.904-60.651-38.378c-15.504-8.44-31.432-16.207-47.639-23.446
						c-20.529-9.173-41.601-17.482-62.937-25.16c-7.195-2.594-14.434-5.129-21.702-7.591c-5.51-1.875-11.049-3.722-16.617-5.539
						c-33.703-10.99-67.846-20.823-101.667-30.509c-66.703-19.05-133.465-38.158-201.399-52.138
						c-53.896-11.078-87.072-13.13-163.784-11.356c62.439-5.173,125.318-4.733,187.698,1.026c22.845,2.125,45.602,4.924,68.271,8.47
						c0.059,0,0.102,0.014,0.146,0.014c31.168,4.851,62.146,11.02,92.787,18.493h0.029c33.879,8.25,67.377,18.068,100.348,29.425
						c13.115,4.513,26.142,9.261,39.067,14.258c0.923,0.366,1.846,0.703,2.74,1.055c5.348,2.095,10.668,4.206,15.972,6.374
						c25.424,10.36,50.54,21.629,75.144,33.865c24.633,12.206,48.855,25.336,72.506,39.331c1.89,1.128,3.766,2.256,5.656,3.429
						c4.982,3.063,9.935,6.228,14.8,9.51c17.936,11.957,35.213,25.028,52.548,37.894c14.038,10.463,28.106,20.793,42.554,30.289
						c3.795,2.476,7.576,4.909,11.415,7.239l0.029,0.015c2.11,1.333,4.25,2.608,6.389,3.869c-0.703-2.271-0.923-5.524-1.905-8.279
						c2.476,0.278,4.909,0.806,7.297,1.568h0.015c2.828,0.894,5.583,2.11,8.206,3.605c1.817,1.04,3.59,2.183,5.29,3.444
						c2.227,1.641,4.293,3.458,6.228,5.407c1.333,1.333,2.579,2.711,3.751,4.147
						C1483.623,3303.786,1484.179,3304.753,1484.971,3306.16z"/>
				</g>
				<path style="fill:#E4F5FD;" d="M1556.388,2940.335c18.874-33.191,42.02-63.779,61.394-96.681
					c23.964-40.697,41.954-84.575,59.858-128.278c48.075-117.352,96.432-235.627,120.836-360.074
					c8.782-44.783,14.361-91.397,3.746-135.782c-9.387,48.226-48.566,84.067-84.483,117.592
					c-41.317,38.565-81.092,78.781-119.2,120.52c-16.207,17.751-32.418,36.262-41.358,58.575
					c-13.855,34.581-8.547,73.385-10.18,110.602c-2.471,56.333-21.507,111.229-50.199,159.771
					c-11.983,20.273-25.699,39.656-35.05,61.27c-12.735,29.436-16.861,61.817-19.303,93.797
					c-8.143,106.609-6.658,236.132,32.764,337.021C1484.182,3161.796,1496.811,3045.106,1556.388,2940.335z"/>
			</g>
			<g>
				<path style="fill:#215CAC;" d="M1818.485,1907.129c7.429,164.599-102.778,299.911-206.898,414.889
					c-53.472,59.049-108.13,117.305-154.284,182.435c-43.036,60.729-80.3,129.4-93.913,203.281
					c-13.877,75.312-4.551,156.778,47.983,215.805c14.785,16.613,39.104-7.848,24.386-24.386
					c-42.542-47.801-50.326-116.453-39.957-177.507c12.308-72.479,48.248-138.806,90.213-198.276
					c91.4-129.525,218.716-230.812,298.684-368.914c43.316-74.804,72.213-160.052,68.273-247.328
					C1851.974,1885.027,1817.481,1884.904,1818.485,1907.129L1818.485,1907.129z"/>
			</g>
			<path style="fill:#E4F5FD;" d="M1916.383,1893.151c45.502-12.193,94.756-22.918,138.761-6.107
				c5.229,1.997,10.756,4.802,12.928,9.961c1.735,4.122,0.899,8.914-0.853,13.029c-7.972,18.722-33.208,28.78-34.228,49.103
				c-0.373,7.429,2.344,16.33-3.157,21.337c-3.023,2.751-7.475,3.071-11.562,3.18c-19.863,0.528-39.769-0.564-59.456-3.261
				c11.448,4.839,22.895,9.679,34.343,14.518c4.865,2.057,10.455,5.049,10.964,10.306c0.33,3.409-1.724,6.601-4.102,9.066
				c-12.093,12.53-32.528,12.934-45.935,24.047c-8.267,6.853-12.979,17.059-20.299,24.915c-7.32,7.857-19.888,13.13-28.638,6.905
				c-2.704-1.924-4.662-4.709-6.398-7.537c-14.726-23.988-17.532-55.045-37.066-75.311c-5.167-5.361-11.583-10.11-13.911-17.182
				c-3.106-9.433,1.8-18.735,0.981-28.186c-0.823-9.491-7.82-14.991-0.474-23.359
				C1861.781,1903.196,1897.573,1898.191,1916.383,1893.151z"/>
			<path style="fill:#E4F5FD;" d="M1832.902,1907.147c-36.428-32.004-81.534-54.031-129.171-63.082
				c-10.007-1.901-20.534-3.211-30.231-0.091c-9.697,3.12-18.281,11.826-18.144,22.012c0.087,6.444,3.528,12.509,3.492,18.954
				c-0.042,7.63-4.85,14.261-8.376,21.028s-5.677,15.615-0.927,21.587c18.683,2.637,37.365,5.275,56.048,7.912
				c-21.265,3.825-42.162,9.691-62.311,17.491c9.932,16.235,31.615,22.972,40.048,40.033c8.362,16.918,0.699,37.79,6.354,55.795
				c0.75,2.387,1.98,4.95,4.34,5.78c1.713,0.602,3.598,0.127,5.338-0.389c8.825-2.622,17.309-6.26,25.77-9.89
				c31.492-13.512,62.984-27.023,94.475-40.535c4.852-2.082,10.108-4.543,12.335-9.33c1.345-2.891,1.352-6.201,1.334-9.39
				c-0.086-15.23-0.171-30.461-0.257-45.691c-0.057-10.135-0.168-20.555-3.976-29.947c-3.057,1.301-6.113,2.603-9.17,3.904
				L1832.902,1907.147z"/>
			<path style="fill:#E4F5FD;" d="M1826.266,1933.846c-10.982-38.772-33.701-73.01-50.168-109.79
				c-5.032-11.24-9.538-22.948-10.51-35.224c-0.373-4.711-0.162-9.681,2.156-13.8c4.833-8.587,16.686-10.161,26.361-8.293
				c9.675,1.867,19.085,6.147,28.917,5.486c12.558-0.844,23.324-9.583,35.734-11.682c3.792-0.641,7.95-0.571,11.152,1.559
				c4.954,3.296,5.863,10.072,6.304,16.006c0.957,12.88,1.914,25.76,2.87,38.64c3.2-12.941,9.698-25.052,18.712-34.873
				c4.136-4.507,8.967-8.638,14.793-10.502c5.826-1.864,12.811-1.047,17.129,3.285c5.222,5.239,5.19,13.634,8.315,20.338
				c3.938,8.448,12.705,13.663,21.594,16.467c8.889,2.803,18.282,3.703,27.215,6.364c1.814,0.54,3.69,1.205,4.961,2.607
				c3.91,4.313-0.476,10.807-3.738,15.629c-5.371,7.941-7.674,17.902-6.334,27.394c0.279,1.979,0.698,4.071-0.072,5.916
				c-0.871,2.088-3.025,3.295-5.049,4.307c-28.153,14.078-60.019,20.798-85.957,38.631c-7.682,5.281-14.798,11.512-23.215,15.519
				c-16.073,7.651-36.398,7.029-49.21,19.388L1826.266,1933.846z"/>
			<path style="fill:#E4F5FD;" d="M1744.741,2066.472c-5.6,6.794-11.385,14.224-12.08,23.002c-0.276,3.487,0.592,7.495,3.609,9.264
				c1.556,0.912,3.431,1.071,5.234,1.122c17.252,0.495,36.19-6.417,50.802,2.768c2.248,1.413,4.352,3.198,6.926,3.85
				c4.955,1.253,9.796-1.994,14.739-3.292c6.701-1.76,14.277,0.356,19.097,5.333c4.488-13.696,8.388-27.584,11.688-41.613
				c2.633,13.246,6.74,26.198,12.22,38.542c10.08-5.92,12.115-20.085,21.114-27.545c2.749-2.279,6.034-3.823,8.884-5.974
				c4.52-3.41,7.803-8.25,10.133-13.41c6.723-14.885,5.78-32.355,0.681-47.872c-5.099-15.517-14.038-29.449-23.179-42.984
				c-2.001-2.963-4.357-6.154-7.858-6.882c-2.495-0.519-5.05,0.347-7.429,1.257
				C1809.636,1981.042,1777.446,2026.791,1744.741,2066.472z"/>
			
				<ellipse transform="matrix(0.2298 -0.9732 0.9732 0.2298 -481.0649 3287.054)" style="fill:#416298;" cx="1836.153" cy="1947.453" rx="66.966" ry="66.966"/>
		</g>
		<path style="opacity:0.53;fill:#ABDFF4;" d="M1645.721,881.761c29.41,77.972-30.45,163.344-101.916,206.206
			c-72.345,43.404-153.16,59.742-236.876,60.417c47.243-140.059,128.38-264.513,233.637-363.63c7.84,3.532,15.548,7.4,23.065,11.591
			C1598.859,815.966,1631.478,844.042,1645.721,881.761z"/>
		<path style="opacity:0.53;fill:#ABDFF4;" d="M2531.4,489.395c-2.506,9.1-13.188,16.031-22.537,12.793
			c-15.02-5.188-30.143-10.052-45.382-14.536c-123.691-36.429-253.186-48.342-381.712-37.469
			c-126.754,10.727-253.039,44.679-367.923,100.407c-105.301,51.097-198.733,119.266-278.023,204.784
			c-6.14,0.366-12.295,0.777-18.434,1.246c5.495,0.146,11.005,0.44,16.485,0.879c-4.41,4.762-8.748,9.583-13.056,14.463
			c-79.423,89.958-143.269,196.359-188.065,307.404c-8.455,20.94-16.309,42.115-23.548,63.494
			c-12.236-1.392-24.501-3.019-36.766-4.836c12.763-38.466,27.505-76.316,44.122-113.39c42.73-95.337,98.487-185.31,166.406-264.864
			c0.674-0.806,1.378-1.612,2.066-2.418c12.705-14.786,25.819-29.205,39.359-43.228c89.006-92.201,196.652-164.428,314.276-214.954
			c122.827-52.782,254.695-82.793,388.292-88.493c132.425-5.656,266.315,12.851,391.647,56.197
			C2527.986,470.111,2534.17,479.328,2531.4,489.395z"/>
		<circle style="opacity:0.53;fill:#ABDFF4;" cx="2817.483" cy="439.983" r="224.186"/>
		<path style="opacity:0.53;fill:#ABDFF4;" d="M3197.877,664.169c110.122,0,211.672,36.751,293.043,98.648
			c-46.437,32.179-95.454,60.695-146.082,85.387c-182.35,88.903-384.936,130.461-587.303,144.778
			c-82.265,5.817-165.439,7.224-246.723-6.755c-71.027-12.207-139.474-35.975-207.642-59.362
			c-236.377-81.137-482.221-159.9-729.164-172.048c155.431-132.337,356.904-212.185,577.016-212.185
			c266.593,0,505.828,117.141,669.041,302.744C2908.863,734.902,3045.098,664.169,3197.877,664.169z"/>
		<path style="opacity:0.53;fill:#ABDFF4;" d="M3595.078,680.435c-11.005,9.964-22.259,19.665-33.718,29.117
			c-6.58-5.436-13.335-10.682-20.237-15.753c-94.252-69.15-201.707-91.864-275.253-98.736c-80.581-7.547-139.4,1.714-139.971,1.802
			c-11.987,1.934-23.27-6.198-25.219-18.171c-1.934-11.972,6.169-23.255,18.141-25.204c2.579-0.425,63.846-10.184,149.614-2.344
			c79.379,7.254,195.567,31.696,298.318,106.942C3576.483,665.21,3585.934,672.668,3595.078,680.435z"/>
		<g>
			<polygon style="fill:#FFBD9C;" points="2855.93,1810.96 2847.722,1498.298 2687.079,1555.876 2705.84,1836.676 			"/>
			<path style="fill:#FFBD9C;" d="M2601.017,1724.575c0,0-134.891-73.357-203.321-120.769
				c-68.43-47.413-290.406-258.262-290.406-258.262l-77.929,80.322c0,0,291.731,352.963,449.56,407.33
				c157.829,54.366,156.147,2.996,156.147,2.996L2601.017,1724.575z"/>
			<path style="fill:#FFBD9C;" d="M1869.187,1347.847c-3.167,6.649,9.412,17.968,28.5,29.867c0,0,0.034,0.02,0.095,0.035
				c21.029,13.126,50.006,26.943,74.511,35.997c46.761,17.272,119.6,47.221,119.6,47.221l0.027-0.007l13.34-8.776l32.661-21.514
				l-3.017-12.406l-18.016-48.612c0,0-24.736-71.153-60.871-114.523c-32.435-38.939-56.359-62.311-65.927-50.706
				c-9.295,11.309,28.384,64.821,30.281,67.529c-3.885-3.061-106.58-84.333-118.305-70.099
				c-11.417,13.841,79.251,90.921,87.497,97.935c-9.25-7.231-117.537-91.235-127.98-67.227
				c-10.354,23.783,88.685,89.547,99.248,96.488c-10.092-6.306-100.407-62.031-109.842-40.748
				c-9.738,22.049,94.912,72.733,99.449,74.915C1946.523,1361.69,1875.644,1334.231,1869.187,1347.847z"/>
			<path style="fill:#FFBD9C;" d="M3002.696,1653.616c0,0,94.08-121.349,137.711-192.25
				c43.631-70.901,162.254-353.141,162.254-353.141l103.624,42.268c0,0-125.44,440.403-248.153,553.572
				c-122.713,113.169-141.802,65.447-141.802,65.447L3002.696,1653.616z"/>
			<path style="fill:#FFBD9C;" d="M3300.637,2615.766l390.796,413.082c-0.119-15.013-46.088,85.804-95.088,70.853
				c-49.549-15.119-451.802-344.945-451.802-344.945L3300.637,2615.766z"/>
			<g>
				<path style="fill:#742705;" d="M3926.844,2967.572c-37.841,56.001-93.421,110.837-119.318,151.365
					c-25.864,40.56-76.363,82.966-119.448,83.387c-13.531-2.881-26.382-9.55-43.538-24.764
					c-28.551-25.411-63.835-84.714-63.835-84.714c30.558,1.813,84.778-63.155,84.778-63.155s25.896-25.12,63.188-97.339
					c34.41-66.651,197.914-155.573,231.612-84.099c0.032,0,0.032,0,0.032,0S3964.686,2911.571,3926.844,2967.572z"/>
				<path style="fill:#4C1905;" d="M3926.844,2967.572c-37.841,56.001-93.421,110.837-119.318,151.365
					c-25.864,40.56-76.363,82.966-119.448,83.387l-0.032-0.032c-17.513-20.393-13.304-41.208,53.865-102.226
					c67.136-60.987,96.723-158.325,142.301-218.081c44.672-58.526,74.809-34.798,76.071-33.73c0.032,0,0.032,0,0.032,0
					S3964.686,2911.571,3926.844,2967.572z"/>
				<path style="fill:#742705;" d="M3768.902,2885.768c0,0-73.093,63.401-104.659,114.338c0,0,5.599,10.299-5.364,37.123
					c-10.962,26.824,36.618,16.788,36.618,16.788l37.544-30.45l27.136-38.689l36.057-67.281L3768.902,2885.768z"/>
			</g>
			<path style="fill:#FFBD9C;" d="M2462.499,2592.354l-390.796,413.082c0.119-15.013,46.088,85.804,95.088,70.853
				c49.549-15.119,451.802-344.945,451.802-344.945L2462.499,2592.354z"/>
			<path style="fill:#A54328;" d="M3465.78,2782.386c-23.307,6.474-241.161,157.871-241.161,157.871s-68.108-63.188-142.107-128.349
				c0,0,0-0.032-0.032-0.032c-80.311-70.73-167.55-143.79-182.376-141.103c-28.454,5.179-396.572,304.122-396.572,304.122
				c-59.562-117.797-182.009-234.566-182.009-234.566l230.597-262.16c0,0,575.29-129.741,615.397-75.391
				C3207.657,2457.159,3465.78,2782.386,3465.78,2782.386z"/>
			<path style="fill:#FF7C2B;" d="M3271.75,1684.019c-4.111,10.521-82.707,84.714-140.683,138.514
				c-34.377,31.918-61.472,56.649-61.472,56.649c21.85,56.066,123.979,537.093,110.157,550.203
				c-13.855,13.077-141.977,77.884-315.549,91.738c-173.538,13.822-293.892-34.216-312.085-42.956
				c-18.192-8.74,3.658-111.42,4.37-184.221c0.745-72.802-47.326-329.824-56.066-340.765c-3.464-4.305-31.108-14.178-64.709-26.188
				c-51.501-18.354-117.052-41.661-131.133-57.523c-23.307-26.22,58.947-302.179,74.97-302.892
				c16.023-0.745,191.504,150.718,226.464,157.256c34.928,6.571,92.71,6.118,92.71,6.118s33.309,84.164,106.046,80.538
				c57.199-2.849,48.491-101.611,48.491-101.611c61.148-24.764,255.048-238.151,255.048-238.151
				C3157.094,1497.694,3278.29,1667.284,3271.75,1684.019z"/>
			<g>
				<path style="fill:#742705;" d="M2182.431,3069.416c0,0-35.284,59.335-63.835,84.714c-17.156,15.246-30.007,21.915-43.538,24.795
					c-38.974-1.197-77.625-44.088-114.204-86.365c-36.579-42.276-109.769-128.608-134.629-170.885
					c-24.893-42.276-23.371-96.82-23.371-96.82c33.698-71.507,197.202,17.415,231.611,84.066
					c37.291,72.219,63.188,97.371,63.188,97.371S2151.873,3071.229,2182.431,3069.416z"/>
				<path style="fill:#4C1905;" d="M2075.09,3178.893l-0.032,0.032c-38.974-1.197-77.625-44.088-114.204-86.365
					c-36.579-42.276-110.532-128.169-134.629-170.885c-36.99-65.57-23.371-96.82-23.371-96.82
					c1.262-1.069,31.4-24.828,76.071,33.698c45.578,59.756,75.164,157.127,142.301,218.114
					C2088.395,3137.653,2092.603,3158.5,2075.09,3178.893z"/>
				<path style="fill:#742705;" d="M1994.234,2862.357c0,0,73.093,63.4,104.659,114.338c0,0-5.599,10.299,5.364,37.123
					c10.962,26.824-36.618,16.788-36.618,16.788l-37.544-30.451l-27.136-38.689l-36.057-67.281L1994.234,2862.357z"/>
			</g>
			<path style="fill:#FFBD9C;" d="M3523.019,1012.744c5.57,4.817-1.405,20.235-14.108,38.798c0,0-0.023,0.032-0.073,0.07
				c-13.988,20.465-34.978,44.755-53.784,62.888c-35.889,34.596-90.571,91.274-90.571,91.274l-0.028,0.005l-15.741-2.681
				l-38.552-6.588l-2.219-12.574l-3.021-51.755c0,0-5.918-75.097,9.76-129.327c14.068-48.686,26.593-79.698,40.017-72.912
				c13.054,6.624,0.035,70.763-0.615,74.005c2.329-4.364,63.744-120.033,80.198-111.706c16.014,8.091-36.07,115.092-40.806,124.827
				c5.568-10.337,71.007-130.754,90.212-112.961c19.032,17.624-45.262,117.623-52.148,128.222
				c6.71-9.828,67.047-97.13,84.233-81.427c17.772,16.283-57.717,104.724-60.995,108.544
				C3457.751,1056.477,3511.637,1002.867,3523.019,1012.744z"/>
			<g>
				<path style="fill:#72321E;" d="M2915.245,852.789c-151.192-70.118-477.68,6.574-536.843,153.383
					c0,0-170.913,94.221-107.369,344.018c63.545,249.796,367.301,277.696,367.301,277.696l184.881-36.664l142.427-214.737
					l87.659-152.629C3053.302,1223.855,3066.438,922.907,2915.245,852.789z"/>
				<path style="fill:#FFBD9C;" d="M2859.698,1632.786c292.794-97.795,190.851-427.208,171.715-502.592
					c0,0-382.736,179.291-533.918,59.084c0,0,25.013,101.869-26.724,156.879c-51.736,55.01-82.356,26.486-82.356,26.486
					s-85.898-41.904-89.359,53.91c-3.173,87.816,121.574,105.198,159.747,75.571
					C2527.124,1598.96,2686.704,1690.567,2859.698,1632.786z"/>
				<path style="fill:#72321E;" d="M2615.965,1382.61c0,0,4.348-9.151,13.333-20.434c12.264-15.398,33.167-34.768,63.446-40.262
					c52.466-9.521,94.695,20.232,94.695,20.232s-55.025-16.662-97.254-1.19c-42.229,15.472-66.64,53.555-66.64,53.555
					s1-14.201,8.077-22.719C2631.623,1371.792,2623.205,1373.875,2615.965,1382.61z"/>
				<path style="fill:#72321E;" d="M3011.005,1302.323c0,0-6.516-6.102-16.736-12.486c-13.948-8.713-34.792-17.951-55.382-12.916
					c-35.676,8.724-48.461,46.284-48.461,46.284s26.072-30.899,58.111-31.547c32.039-0.648,62.966,22.762,62.966,22.762
					s-6.648-11.276-14.541-16.004C2996.962,1298.417,3002.923,1297.469,3011.005,1302.323z"/>
				<path style="fill:#F08366;" d="M2864.947,1363.091c12.238,7.769,28.464,3.716,42.385,7.759
					c18.951,5.505,30.977,28.066,24.982,46.868c-5.995,18.802-28.861,30.238-47.501,23.757
					c10.967-4.795,21.831-11.352,27.824-21.713c5.992-10.361,5.422-25.275-3.985-32.675c-8.692-6.838-21.082-5.243-31.823-7.879
					c-13.435-3.298-38.852-26.632-29.04-42.238C2853.194,1346.162,2855.082,1356.828,2864.947,1363.091z"/>
				<path style="fill:#D8634C;" d="M2857.804,1587.1c-51.212,11.793-147.165-48.083-143.608-65.332
					c1.069-5.081,5.349-7.328,12.969-8.05c18.266-1.818,55.572,5.054,112.212,2.193c80.229-4.065,104.806-25.967,104.806-25.967
					c0.133,6.338-0.722,12.89-2.488,19.468C2932.765,1542.948,2900.62,1577.232,2857.804,1587.1z"/>
				<path style="fill:#FFFFFF;" d="M2944.184,1489.944c0.133,6.338-0.722,12.89-2.488,19.468
					c-13.399,5.964-34.017,13.399-63.701,19.924c-48.298,10.617-121.332-7.301-150.83-15.618
					c18.266-1.818,55.572,5.054,112.212,2.193C2919.606,1511.846,2944.184,1489.944,2944.184,1489.944z"/>
			</g>
			<path style="fill:#F08366;" d="M2693.097,1645.947c0,0,118.031,4.38,158.227-10.481c0,0-80.486,52.866-154.488,66.433
				L2693.097,1645.947z"/>
			<path style="opacity:0.58;fill:#FF7C2B;" d="M2500.424,1953.181c-3.464-4.305-31.108-14.178-64.709-26.188
				c27.256-50.951,44.801-151.527,44.801-151.527L2500.424,1953.181z"/>
			<path style="opacity:0.58;fill:#FF7C2B;" d="M3131.068,1822.533c-34.377,31.918-61.472,56.649-61.472,56.649
				s-43.247-90.702-71.183-142.204L3131.068,1822.533z"/>
			<path style="opacity:0.61;fill:#A54328;" d="M3082.479,2811.875c-80.311-70.73-167.55-143.79-182.376-141.103l62.087-85.556
				C2962.19,2585.217,3035.574,2744.092,3082.479,2811.875z"/>
		</g>
	</g>
</g>
</svg>
